<?xml version="1.0" encoding="utf-8"?>
<!-- Generator: Adobe Illustrator 16.0.0, SVG Export Plug-In . SVG Version: 6.00 Build 0)  -->
<!DOCTYPE svg PUBLIC "-//W3C//DTD SVG 1.1//EN" "http://www.w3.org/Graphics/SVG/1.1/DTD/svg11.dtd">
<svg version="1.1" id="Layer_1" xmlns="http://www.w3.org/2000/svg" xmlns:xlink="http://www.w3.org/1999/xlink" x="0px" y="0px"
	 width="209.996px" height="210px" viewBox="0 0 209.996 210" enable-background="new 0 0 209.996 210" xml:space="preserve">
<g>
	<g>
		<g>
			<g>
				<line fill="none" stroke="#0000FF" stroke-miterlimit="10" x1="89.998" y1="-72.5" x2="89.998" y2="-70"/>
				
					<line fill="none" stroke="#0000FF" stroke-miterlimit="10" stroke-dasharray="4.9296,4.9296" x1="89.998" y1="-65.07" x2="89.998" y2="277.535"/>
				<line fill="none" stroke="#0000FF" stroke-miterlimit="10" x1="89.998" y1="280" x2="89.998" y2="282.5"/>
			</g>
		</g>
		<g>
			<g>
				<line fill="none" stroke="#0000FF" stroke-miterlimit="10" x1="60" y1="-72.5" x2="60" y2="-70"/>
				
					<line fill="none" stroke="#0000FF" stroke-miterlimit="10" stroke-dasharray="4.9296,4.9296" x1="60" y1="-65.07" x2="60" y2="277.535"/>
				<line fill="none" stroke="#0000FF" stroke-miterlimit="10" x1="60" y1="280" x2="60" y2="282.5"/>
			</g>
		</g>
		<g>
			<g>
				<line fill="none" stroke="#0000FF" stroke-miterlimit="10" x1="30" y1="-72.5" x2="30" y2="-70"/>
				
					<line fill="none" stroke="#0000FF" stroke-miterlimit="10" stroke-dasharray="4.9296,4.9296" x1="30" y1="-65.07" x2="30" y2="277.535"/>
				<line fill="none" stroke="#0000FF" stroke-miterlimit="10" x1="30" y1="280" x2="30" y2="282.5"/>
			</g>
		</g>
		<g>
			<g>
				<line fill="none" stroke="#0000FF" stroke-miterlimit="10" x1="0" y1="-72.5" x2="0" y2="-70"/>
				
					<line fill="none" stroke="#0000FF" stroke-miterlimit="10" stroke-dasharray="4.9296,4.9296" x1="0" y1="-65.07" x2="0" y2="277.535"/>
				<line fill="none" stroke="#0000FF" stroke-miterlimit="10" x1="0" y1="280" x2="0" y2="282.5"/>
			</g>
		</g>
		<g>
			<g>
				<line fill="none" stroke="#0000FF" stroke-miterlimit="10" x1="209.995" y1="-72.5" x2="209.995" y2="-70"/>
				
					<line fill="none" stroke="#0000FF" stroke-miterlimit="10" stroke-dasharray="4.9296,4.9296" x1="209.995" y1="-65.07" x2="209.995" y2="277.535"/>
				<line fill="none" stroke="#0000FF" stroke-miterlimit="10" x1="209.995" y1="280" x2="209.995" y2="282.5"/>
			</g>
		</g>
		<g>
			<g>
				<line fill="none" stroke="#0000FF" stroke-miterlimit="10" x1="179.996" y1="-72.5" x2="179.996" y2="-70"/>
				
					<line fill="none" stroke="#0000FF" stroke-miterlimit="10" stroke-dasharray="4.9296,4.9296" x1="179.996" y1="-65.07" x2="179.996" y2="277.535"/>
				<line fill="none" stroke="#0000FF" stroke-miterlimit="10" x1="179.996" y1="280" x2="179.996" y2="282.5"/>
			</g>
		</g>
		<g>
			<g>
				<line fill="none" stroke="#0000FF" stroke-miterlimit="10" x1="149.996" y1="-72.5" x2="149.996" y2="-70"/>
				
					<line fill="none" stroke="#0000FF" stroke-miterlimit="10" stroke-dasharray="4.9296,4.9296" x1="149.996" y1="-65.07" x2="149.996" y2="277.535"/>
				<line fill="none" stroke="#0000FF" stroke-miterlimit="10" x1="149.996" y1="280" x2="149.996" y2="282.5"/>
			</g>
		</g>
		<g>
			<g>
				<line fill="none" stroke="#0000FF" stroke-miterlimit="10" x1="119.997" y1="-72.5" x2="119.997" y2="-70"/>
				
					<line fill="none" stroke="#0000FF" stroke-miterlimit="10" stroke-dasharray="4.9296,4.9296" x1="119.997" y1="-65.07" x2="119.997" y2="277.535"/>
				<line fill="none" stroke="#0000FF" stroke-miterlimit="10" x1="119.997" y1="280" x2="119.997" y2="282.5"/>
			</g>
		</g>
	</g>
	<g>
		<g>
			<g>
				<line fill="none" stroke="#0000FF" stroke-miterlimit="10" x1="-72.502" y1="120" x2="-70.002" y2="120"/>
				
					<line fill="none" stroke="#0000FF" stroke-miterlimit="10" stroke-dasharray="4.9296,4.9296" x1="-65.073" y1="120" x2="277.533" y2="119.999"/>
				<line fill="none" stroke="#0000FF" stroke-miterlimit="10" x1="279.998" y1="119.999" x2="282.498" y2="119.999"/>
			</g>
		</g>
		<g>
			<g>
				<line fill="none" stroke="#0000FF" stroke-miterlimit="10" x1="-72.502" y1="149.999" x2="-70.002" y2="149.999"/>
				
					<line fill="none" stroke="#0000FF" stroke-miterlimit="10" stroke-dasharray="4.9296,4.9296" x1="-65.073" y1="149.999" x2="277.533" y2="149.998"/>
				<line fill="none" stroke="#0000FF" stroke-miterlimit="10" x1="279.998" y1="149.998" x2="282.498" y2="149.998"/>
			</g>
		</g>
		<g>
			<g>
				<line fill="none" stroke="#0000FF" stroke-miterlimit="10" x1="-72.502" y1="179.998" x2="-70.002" y2="179.998"/>
				
					<line fill="none" stroke="#0000FF" stroke-miterlimit="10" stroke-dasharray="4.9296,4.9296" x1="-65.073" y1="179.998" x2="277.533" y2="179.998"/>
				<line fill="none" stroke="#0000FF" stroke-miterlimit="10" x1="279.998" y1="179.998" x2="282.498" y2="179.998"/>
			</g>
		</g>
		<g>
			<g>
				<line fill="none" stroke="#0000FF" stroke-miterlimit="10" x1="-72.502" y1="209.998" x2="-70.002" y2="209.998"/>
				
					<line fill="none" stroke="#0000FF" stroke-miterlimit="10" stroke-dasharray="4.9296,4.9296" x1="-65.073" y1="209.998" x2="277.533" y2="209.997"/>
				<line fill="none" stroke="#0000FF" stroke-miterlimit="10" x1="279.998" y1="209.997" x2="282.498" y2="209.997"/>
			</g>
		</g>
		<g>
			<g>
				<line fill="none" stroke="#0000FF" stroke-miterlimit="10" x1="-72.502" y1="0.002" x2="-70.002" y2="0.002"/>
				
					<line fill="none" stroke="#0000FF" stroke-miterlimit="10" stroke-dasharray="4.9296,4.9296" x1="-65.073" y1="0.002" x2="277.533" y2="0.002"/>
				<line fill="none" stroke="#0000FF" stroke-miterlimit="10" x1="279.998" y1="0.002" x2="282.498" y2="0.002"/>
			</g>
		</g>
		<g>
			<g>
				<line fill="none" stroke="#0000FF" stroke-miterlimit="10" x1="-72.502" y1="30.001" x2="-70.002" y2="30.001"/>
				
					<line fill="none" stroke="#0000FF" stroke-miterlimit="10" stroke-dasharray="4.9296,4.9296" x1="-65.073" y1="30.001" x2="277.533" y2="30.001"/>
				<line fill="none" stroke="#0000FF" stroke-miterlimit="10" x1="279.998" y1="30.001" x2="282.498" y2="30.001"/>
			</g>
		</g>
		<g>
			<g>
				<line fill="none" stroke="#0000FF" stroke-miterlimit="10" x1="-72.502" y1="60.001" x2="-70.002" y2="60.001"/>
				
					<line fill="none" stroke="#0000FF" stroke-miterlimit="10" stroke-dasharray="4.9296,4.9296" x1="-65.073" y1="60.001" x2="277.533" y2="60.001"/>
				<line fill="none" stroke="#0000FF" stroke-miterlimit="10" x1="279.998" y1="60.001" x2="282.498" y2="60.001"/>
			</g>
		</g>
		<g>
			<g>
				<line fill="none" stroke="#0000FF" stroke-miterlimit="10" x1="-72.502" y1="90" x2="-70.002" y2="90"/>
				
					<line fill="none" stroke="#0000FF" stroke-miterlimit="10" stroke-dasharray="4.9296,4.9296" x1="-65.073" y1="90" x2="277.533" y2="90"/>
				<line fill="none" stroke="#0000FF" stroke-miterlimit="10" x1="279.998" y1="90" x2="282.498" y2="90"/>
			</g>
		</g>
	</g>
	<g>
		<polygon fill="#0000FF" points="149.996,59.999 149.996,29.999 119.998,29.999 119.998,59.999 119.998,89.996 149.996,89.996 
			180,89.996 180,59.999 		"/>
		<polygon fill="#0000FF" points="59.996,29.999 59.996,59.999 30,59.999 59.996,89.994 59.996,89.996 89.997,89.996 89.997,59.999 
			89.997,29.999 		"/>
		<polygon fill="#0000FF" points="149.996,120 119.998,120 119.998,150 120.003,150 149.996,179.991 149.996,150 180,150 180,120 		
			"/>
		<polygon fill="#0000FF" points="59.996,120 59.996,120.004 30,150 59.996,150 59.996,180.001 89.997,150 89.997,120 		"/>
	</g>
	<g>
		<g>
			<line fill="none" stroke="#0000FF" stroke-miterlimit="10" x1="179.996" y1="209.997" x2="178.229" y2="208.229"/>
			
				<line fill="none" stroke="#0000FF" stroke-miterlimit="10" stroke-dasharray="5.0929,5.0929" x1="174.626" y1="204.628" x2="3.569" y2="33.57"/>
			<line fill="none" stroke="#0000FF" stroke-miterlimit="10" x1="1.768" y1="31.769" x2="0" y2="30.001"/>
		</g>
	</g>
	<g>
		<g>
			<line fill="none" stroke="#0000FF" stroke-miterlimit="10" x1="119.998" y1="59.999" x2="118.23" y2="61.767"/>
			
				<line fill="none" stroke="#0000FF" stroke-miterlimit="10" stroke-dasharray="4.9909,4.9909" x1="114.701" y1="65.296" x2="3.532" y2="176.459"/>
			<line fill="none" stroke="#0000FF" stroke-miterlimit="10" x1="1.768" y1="178.225" x2="0" y2="179.991"/>
		</g>
	</g>
	<g>
		<g>
			<line fill="none" stroke="#0000FF" stroke-miterlimit="10" x1="149.996" y1="89.996" x2="148.229" y2="91.764"/>
			
				<line fill="none" stroke="#0000FF" stroke-miterlimit="10" stroke-dasharray="4.991,4.991" x1="144.699" y1="95.293" x2="33.53" y2="206.463"/>
			<line fill="none" stroke="#0000FF" stroke-miterlimit="10" x1="31.765" y1="208.229" x2="29.998" y2="209.995"/>
		</g>
	</g>
</g>
</svg>
