<?xml version="1.0" encoding="utf-8"?>
<!-- Generator: Adobe Illustrator 16.0.0, SVG Export Plug-In . SVG Version: 6.00 Build 0)  -->
<!DOCTYPE svg PUBLIC "-//W3C//DTD SVG 1.1//EN" "http://www.w3.org/Graphics/SVG/1.1/DTD/svg11.dtd">
<svg version="1.1" id="Layer_1" xmlns="http://www.w3.org/2000/svg" xmlns:xlink="http://www.w3.org/1999/xlink" x="0px" y="0px"
	 width="300px" height="300px" viewBox="0 0 300 300" enable-background="new 0 0 300 300" xml:space="preserve">
<g>
	<g>
		<polygon fill="#1791FF" points="239.994,60 239.994,-0.001 180,-0.001 180,60 180,119.994 239.994,119.994 300,119.994 300,60 		
			"/>
		<polygon fill="#1791FF" points="59.995,-0.001 59.995,60 0,60 59.995,119.99 59.995,119.994 119.996,119.994 119.996,60 
			119.996,-0.001 		"/>
		<polygon fill="#1791FF" points="239.994,180 180,180 180,240 180.009,240 239.994,299.982 239.994,240 300,240 300,180 		"/>
		<polygon fill="#1791FF" points="59.995,180 59.995,180.009 0,240 59.995,240 59.995,300.001 119.996,240 119.996,180 		"/>
	</g>
</g>
</svg>
