<?xml version="1.0" encoding="utf-8"?>
<meta http-equiv="Content-Type" content="svg/xml" />
<!DOCTYPE svg PUBLIC "-//W3C//DTD SVG 1.1//EN" "http://www.w3.org/Graphics/SVG/1.1/DTD/svg11.dtd">
<svg version="1.1" id="Layer_1" xmlns="http://www.w3.org/2000/svg" xmlns:xlink="http://www.w3.org/1999/xlink" x="0px" y="0px"
	 width="400px" height="150px" viewBox="0 0 400 150" enable-background="new 0 0 400 150" xml:space="preserve">
<g>
	<g>
		<g>
			<g>
				<polygon fill="#1791FF" points="109.581,45.001 109.581,25 89.583,25 89.583,45.001 89.583,64.998 109.581,64.998 
					129.583,64.998 129.583,45.001 				"/>
				<polygon fill="#1791FF" points="49.582,25 49.582,45.001 29.583,45.001 49.582,64.997 49.582,64.998 69.582,64.998 
					69.582,45.001 69.582,25 				"/>
				<polygon fill="#1791FF" points="109.581,85 89.583,85 89.583,105 89.586,105 109.581,124.994 109.581,105 129.583,105 
					129.583,85 				"/>
				<polygon fill="#607D8B" points="49.582,85 49.582,85.004 29.583,105 49.582,105 49.582,125 69.582,105 69.582,85 				"/>
			</g>
		</g>
	</g>
	<g>
		<g enable-background="new    ">
			<path fill="#1791FF" d="M155.462,42.601h-3.319c0.52-1.68,1.28-3.6,1.28-3.6h18.197c-0.32,1.641-1.16,3.6-1.16,3.6h-10.758
				l-1.32,7.479h9.519c-0.28,1.48-1.04,3.6-1.04,3.6h-9.119l-1.36,7.679h10.878l-0.64,3.64h-15.117L155.462,42.601z"/>
			<path fill="#1791FF" d="M174.182,45.84c0,0,2.16-0.439,4.04-0.56l-0.84,4.079c-0.32,1.68-0.8,3.2-0.8,3.2s1.84-2.96,3.72-4.88
				c1.64-1.64,3.199-2.439,5.239-2.439c2.36,0,4.12,1.04,4.12,3.999c0,0.84-0.2,1.88-0.44,2.72l-2.12,8.358l0.4,4.64l-4.439,0.24
				l-0.2-4.8l1.879-7.719c0.16-0.64,0.28-1.279,0.28-1.839c0-1.04-0.48-1.561-1.36-1.561c-0.96,0-1.96,0.721-3.08,1.84
				c-1.72,1.72-3.959,4.959-3.959,4.959l-1.64,8.919h-4.359L174.182,45.84z"/>
			<path fill="#1791FF" d="M207.18,67.316c-0.279,5.319-3.76,6.319-7.879,6.319c-2.64,0-5.719-0.68-8.279-1.479l1.04-3.04
				c1.52,0.32,4.68,0.84,7.039,0.84c2.68,0,4.159-0.439,4.359-3.159l0.399-4.879c0.08-1.16,0.641-3.76,0.641-3.76
				c-1.68,3.6-4.68,7.079-8.279,7.079c-2.44,0-3.839-1.68-3.839-5.799c0-6.239,5.199-14.198,11.158-14.198
				c2.319,0,4.879,0.28,7.519,0.64L207.7,57.878L207.18,67.316z M204.42,55.278l1.84-6.599c-0.721-0.12-1.721-0.24-2.8-0.24
				c-3.319,0-6.919,5.6-6.919,10.559c0,1.64,0.52,2.359,1.48,2.359C199.98,61.357,202.54,58.158,204.42,55.278z"/>
			<path fill="#1791FF" d="M216.381,45.681c0.359-0.08,2.6-0.36,4.6-0.36l-3.84,19.677h-4.479L216.381,45.681z M217.421,40.481
				c0-1.28,1.839-2.76,3.319-2.76c0.92,0,1.88,0.88,1.88,1.72c0,1.359-1.92,2.76-3.319,2.76
				C218.341,42.201,217.421,41.321,217.421,40.481z"/>
			<path fill="#1791FF" d="M227.261,45.84c0,0,2.159-0.439,4.04-0.56l-0.84,4.079c-0.32,1.68-0.801,3.2-0.801,3.2
				s1.84-2.96,3.72-4.88c1.64-1.64,3.199-2.439,5.239-2.439c2.359,0,4.119,1.04,4.119,3.999c0,0.84-0.2,1.88-0.439,2.72
				l-2.119,8.358l0.398,4.64l-4.439,0.24l-0.199-4.8l1.879-7.719c0.16-0.64,0.281-1.279,0.281-1.839c0-1.04-0.479-1.561-1.359-1.561
				c-0.96,0-1.96,0.721-3.079,1.84c-1.722,1.72-3.96,4.959-3.96,4.959l-1.641,8.919h-4.358L227.261,45.84z"/>
			<path fill="#1791FF" d="M249.5,57.238c-0.039,0.48-0.08,1.04-0.08,1.68c0,2.239,0.76,3.239,2.121,3.239
				c1.639,0,3.398-1.079,5.918-3.639l1.84,2.079c-1,1.16-2.119,2.24-3.119,3c-1.52,1.199-3.399,2.039-5.76,2.039
				c-2.959,0-5.039-1.68-5.039-6.438c0-3.64,1.439-8.639,4.559-11.519c1.761-1.64,3.882-2.72,7-2.72c3.119,0,4.879,1.8,4.879,4.08
				c0,1.359-0.76,2.959-2,4.199C258.1,54.919,253.779,56.519,249.5,57.238z M250.1,54.319c2.439-0.521,5.439-1.561,6.601-2.64
				c0.6-0.561,1.079-1.48,1.079-2.32c0-1.159-0.76-1.439-1.76-1.439s-2.561,0.479-3.399,0.92
				C251.541,50.399,250.74,52.159,250.1,54.319z"/>
			<path fill="#1791FF" d="M266.82,57.238c-0.039,0.48-0.08,1.04-0.08,1.68c0,2.239,0.76,3.239,2.121,3.239
				c1.639,0,3.397-1.079,5.918-3.639l1.84,2.079c-1,1.16-2.119,2.24-3.119,3c-1.52,1.199-3.4,2.039-5.76,2.039
				c-2.959,0-5.039-1.68-5.039-6.438c0-3.64,1.439-8.639,4.559-11.519c1.76-1.64,3.881-2.72,7-2.72s4.879,1.8,4.879,4.08
				c0,1.359-0.76,2.959-2,4.199C275.42,54.919,271.1,56.519,266.82,57.238z M267.42,54.319c2.439-0.521,5.439-1.561,6.6-2.64
				c0.601-0.561,1.08-1.48,1.08-2.32c0-1.159-0.76-1.439-1.76-1.439s-2.561,0.479-3.4,0.92
				C268.861,50.399,268.061,52.159,267.42,54.319z"/>
			<path fill="#1791FF" d="M283.74,45.761c0,0,2.24-0.36,3.721-0.44l-1.121,5.759c-0.199,1.04-0.68,2.4-0.84,2.88
				c1.721-3.6,3.279-5.719,4.439-6.839c1.6-1.52,2.959-1.76,4.959-1.76l-1.16,4.279c0,0-0.24-0.08-0.68-0.08
				c-2.72,0-6.199,5.879-7.519,8.559l-1.36,6.879h-4.158L283.74,45.761z"/>
			<path fill="#1791FF" d="M298.701,57.238c-0.041,0.48-0.08,1.04-0.08,1.68c0,2.239,0.76,3.239,2.119,3.239
				c1.641,0,3.4-1.079,5.92-3.639l1.838,2.079c-0.998,1.16-2.119,2.24-3.119,3c-1.52,1.199-3.398,2.039-5.758,2.039
				c-2.961,0-5.039-1.68-5.039-6.438c0-3.64,1.439-8.639,4.559-11.519c1.76-1.64,3.879-2.72,6.998-2.72
				c3.121,0,4.879,1.8,4.879,4.08c0,1.359-0.76,2.959-1.998,4.199C307.299,54.919,302.98,56.519,298.701,57.238z M299.301,54.319
				c2.439-0.521,5.439-1.561,6.598-2.64c0.603-0.561,1.08-1.48,1.08-2.32c0-1.159-0.76-1.439-1.76-1.439s-2.559,0.479-3.398,0.92
				C300.74,50.399,299.939,52.159,299.301,54.319z"/>
			<path fill="#1791FF" d="M323.539,61.558c-0.039-1.04,0.641-3.239,0.641-3.239c-1.801,3.239-4.92,7.079-8.6,7.079
				c-2.318,0-3.799-1.8-3.799-5.959c0-5.76,4.879-14.198,11.037-14.198c1.121,0,2.399,0.12,3.438,0.36l1.761-7.679
				c0,0,2.239-0.44,4.159-0.48l-4.6,21.037l0.079,6.238l-3.959,0.601L323.539,61.558z M324.059,55.278l1.521-6.639
				c-0.56-0.08-1.479-0.2-2.438-0.2c-4.039,0-7.119,5.959-7.119,10.599c0,1.72,0.479,2.319,1.479,2.319
				C319.42,61.357,322.619,57.358,324.059,55.278z"/>
			<path fill="#1791FF" d="M344.059,45.681c0.361-0.08,2.601-0.36,4.601-0.36l-3.841,19.677h-4.479L344.059,45.681z M345.1,40.481
				c0-1.28,1.84-2.76,3.318-2.76c0.92,0,1.881,0.88,1.881,1.72c0,1.359-1.92,2.76-3.32,2.76
				C346.02,42.201,345.1,41.321,345.1,40.481z"/>
			<path fill="#1791FF" d="M354.939,45.84c0,0,2.16-0.439,4.039-0.56l-0.84,4.079c-0.32,1.68-0.802,3.2-0.802,3.2
				s1.84-2.96,3.722-4.88c1.639-1.64,3.198-2.439,5.237-2.439c2.359,0,4.119,1.04,4.119,3.999c0,0.84-0.199,1.88-0.438,2.72
				l-2.119,8.358l0.399,4.64l-4.438,0.24l-0.201-4.8l1.881-7.719c0.16-0.64,0.279-1.279,0.279-1.839c0-1.04-0.48-1.561-1.359-1.561
				c-0.961,0-1.961,0.721-3.08,1.84c-1.719,1.72-3.959,4.959-3.959,4.959l-1.641,8.919h-4.359L354.939,45.84z"/>
		</g>
		<g>
			<g enable-background="new    ">
				<path fill="#607D8B" d="M150.663,78.882h18.797c0,1.279-0.72,4.239-1.2,5.519h-9.278v4.479h8.239c0,1.64-0.56,4.438-1.24,5.8
					h-6.999v4.6h9.278v5.719h-15.957V84.4h-1.64V78.882z"/>
				<path fill="#607D8B" d="M171.663,99.639c1.12,0.439,3.399,0.879,5.439,0.879c1.319,0,2.04-0.318,2.04-1.119
					c0-0.479-0.24-0.959-0.96-1.319l-3.08-1.56c-1.68-0.84-3.679-2.319-3.679-5.76c0-4.359,4.039-6.158,8.958-6.158
					c1.8,0,3.719,0.239,5.639,0.68c0,1.32-0.68,4.039-1.4,5.119c-1.36-0.439-3.2-0.721-4.799-0.721c-1.12,0-1.68,0.479-1.68,1.12
					c0,0.64,0.4,1.119,1.28,1.521l3.08,1.438c1.72,0.8,3.839,2.359,3.839,5.759c0,4.439-3.919,5.92-8.279,5.92
					c-2.16,0-4.439-0.359-6.399-0.92L171.663,99.639L171.663,99.639z"/>
				<path fill="#607D8B" d="M197.661,85.2h5.039V90h-5.039l-0.04,7.398c0,2.56,0.8,3.039,2.16,3.039c0.68,0,1.6-0.24,2.479-0.479
					c0.44,1.08,0.76,3.479,0.881,4.56c-1.84,0.68-3.52,1.08-5.68,1.08c-3.359,0-6.399-1.439-6.359-6.84l0.04-8.758h-3.6
					c0-1.521,0.44-3.359,1.36-4.8h2.36l0.04-3.279c0,0,3.799-1.8,6.399-2L197.661,85.2z"/>
				<path fill="#607D8B" d="M215.021,84.521c5.799,0,10.158,3.479,10.158,10.797c0,7.439-4.52,10.238-10.158,10.238
					c-5.84,0-9.998-2.918-9.998-10.277C205.021,88.08,209.223,84.521,215.021,84.521z M215.021,100.479
					c2.238,0,3.199-2.319,3.199-5.24c0-3.838-0.92-5.598-3.199-5.598c-2.239,0-3.199,1.959-3.199,5.639
					C211.82,98.238,212.621,100.479,215.021,100.479z"/>
				<path fill="#607D8B" d="M240.34,92.561c0-2.24-1.359-2.48-2.52-2.48c-0.84,0-1.68,0.32-2.439,0.761v14.157h-6.999V85.48
					c1.72-0.681,4.279-1.041,6.879-1.041V87.2c1.64-1.36,3.8-2.56,5.759-2.56c3.92,0,6.318,1.799,6.318,6.758v13.599h-6.998V92.561z
					"/>
				<path fill="#607D8B" d="M255.861,76.682c1.52,0,3.799,1.721,3.799,3.239c0,1.44-2.24,3.24-3.799,3.24
					c-1.521,0-3.799-1.8-3.799-3.24C252.063,78.361,254.381,76.682,255.861,76.682z M252.301,86.04c1.721-0.681,4.32-1.04,6.92-1.04
					v19.997h-6.92V86.04L252.301,86.04z"/>
				<path fill="#607D8B" d="M282.258,103.357c-1.439,1.238-3.838,2.078-6.158,2.238l-1.358-1.918
					c-1.08,0.959-2.521,1.879-5.521,1.879c-3.719,0-6.238-2.72-6.238-5.72c0-1.88,0.959-3.879,2.601-4.839
					c1.959-1.16,5.237-1.641,7.998-1.801v-0.799c0-1.721-1-2.521-2.802-2.521c-2.237,0-3.959,0.521-5.157,1.119l-1.72-4.079
					c1.72-1,5.277-2.439,8.238-2.439c1.76,0,3.279,0.201,4.64,1.121c1.719,1.119,3.278,2.799,3.239,5.918l-0.08,9.039
					L282.258,103.357z M273.459,100.998v-4.119c-2.359,0.199-4.039,1.039-4.039,2.439c0,1.158,0.881,2.078,2.24,2.078
					C272.18,101.396,272.82,101.236,273.459,100.998z"/>
			</g>
		</g>
	</g>
</g>
</svg>
