<?xml version="1.0" encoding="utf-8"?>
<!-- Generator: Adobe Illustrator 16.0.0, SVG Export Plug-In . SVG Version: 6.00 Build 0)  -->
<!DOCTYPE svg PUBLIC "-//W3C//DTD SVG 1.1//EN" "http://www.w3.org/Graphics/SVG/1.1/DTD/svg11.dtd">
<svg version="1.1" id="Layer_1" xmlns="http://www.w3.org/2000/svg" xmlns:xlink="http://www.w3.org/1999/xlink" x="0px" y="0px"
	 width="400px" height="150px" viewBox="0 0 400 150" enable-background="new 0 0 400 150" xml:space="preserve">
<meta  http-equiv="Content-Type" content="svg/xml"></meta>
<g>
	<g>
		<g>
			<g>
				<polygon fill="#0000FF" points="126.28,45.001 126.28,25 106.282,25 106.282,45.001 106.282,64.998 126.28,64.998 
					146.282,64.998 146.282,45.001 				"/>
				<polygon fill="#0000FF" points="66.281,25 66.281,45.001 46.283,45.001 66.281,64.997 66.281,64.998 86.281,64.998 
					86.281,45.001 86.281,25 				"/>
				<polygon fill="#0000FF" points="126.28,85 106.282,85 106.282,105 106.286,105 126.28,124.994 126.28,105 146.282,105 
					146.282,85 				"/>
				<polygon points="66.281,85 66.281,85.004 46.283,105 66.281,105 66.281,125 86.281,105 86.281,85 				"/>
			</g>
		</g>
	</g>
</g>
<g>
	<path d="M183.005,52.972c0-3.182-2.295-4.847-5.44-4.847c-2.22,0-5.587,1.739-5.735,4.477v12.396h-2.997V45.757h2.849v3.367h0.518
		c1.184-2.664,3.848-3.663,6.401-3.663c4.367,0,7.401,2.146,7.401,7.252v12.285h-2.997V52.972z"/>
	<path d="M199.58,45.313c5.847,0,9.806,3.922,9.806,10.028c0,6.216-3.812,10.176-9.806,10.176c-5.884,0-9.731-3.996-9.731-10.065
		C189.849,49.346,193.771,45.313,199.58,45.313z M199.58,62.963c3.737,0,6.66-2.849,6.66-7.512c0-4.958-2.886-7.622-6.66-7.622
		c-3.552,0-6.586,2.664-6.586,7.622C192.994,60.077,196.028,62.963,199.58,62.963z"/>
	<path d="M213.417,45.757h3.108v3.367h0.519c0.518-2.331,1.961-3.515,4.181-3.515h2.664v2.664h-2.664
		c-2.294,0-4.366,2.331-4.588,5.55v11.175h-3.22V45.757z"/>
	<path d="M231.141,45.757h4.625v2.442h-4.625l-0.074,11.471c0,2.516,0.999,2.997,2.442,2.997h1.924v2.331h-2.479
		c-3.293,0-4.81-1.221-4.773-5.587l0.037-11.212h-3.034v-2.442h3.034l0.037-6.624h2.961L231.141,45.757z"/>
	<path d="M253.97,52.972c0-3.182-2.258-4.847-5.366-4.847c-2.183,0-5.476,1.739-5.624,4.477v12.396h-3.034V36.802h3.034v12.322h0.37
		c1.184-2.664,3.7-3.663,6.253-3.663c4.367,0,7.364,2.146,7.364,7.252v12.285h-2.997V52.972z"/>
	<path d="M262.033,50.567h7.733v-7.733h2.998v7.733h7.771v2.96h-7.771v7.808h-2.998v-7.808h-7.733V50.567z"/>
	<path fill="#0000FF" d="M287.564,55.563v0.333c0,1.147,0.147,2.146,0.518,2.997c1.147,2.553,3.294,3.959,6.698,3.959
		c1.961,0,4.403-0.703,6.327-2.072h0.703v2.405c-1.998,1.739-4.959,2.331-6.994,2.331c-6.623,0-10.286-3.404-10.286-10.213
		c0-5.476,3.256-9.954,9.103-9.954c6.513,0,8.918,4.478,9.103,10.213H287.564z M287.749,53.268h11.693
		c-0.186-3.145-2.331-5.402-5.772-5.402C290.117,47.866,288.305,49.864,287.749,53.268z"/>
	<path d="M319.052,62.704h-0.481c-1.628,1.998-3.737,2.812-6.327,2.812c-3.812,0-6.66-2.479-6.66-5.81
		c0-3.959,2.997-5.476,7.548-6.549c1.295-0.259,4.145-0.703,5.477-0.888l0.296-0.481c-0.555-2.22-2.405-3.737-5.032-3.737
		c-2.886,0-4.478,0.888-6.327,2.516h-0.556v-2.701c1.665-1.369,3.849-2.479,6.957-2.479c5.069,0,8.178,2.923,8.178,7.585
		c0,4.292-0.037,7.771-0.037,12.026h-3.034V62.704z M319.052,59.041l0.037-4.07c-1.629,0.259-3.997,0.629-4.996,0.814
		c-3.811,0.703-5.402,1.776-5.402,3.886c0,2.109,1.962,3.182,4.811,3.182c2.035,0,5.551-1.258,5.551-3.885V59.041z"/>
	<path d="M326.414,60.373h0.999c1.036,1.443,3.812,2.813,6.216,2.813c3.108,0,4.7-1.073,4.7-3.034
		c0-4.034-11.841-2.738-11.841-9.288c0-3.256,2.479-5.439,7.659-5.439c2.923,0,5.032,0.925,6.143,1.554v3.071h-0.889
		c-0.703-0.814-2.479-2.368-5.254-2.368c-3.22,0-4.699,1.147-4.699,2.775c0,4.662,11.841,2.664,11.841,9.547
		c0,3.404-2.258,5.513-7.696,5.513c-2.85,0-5.366-0.999-7.179-2.22V60.373z"/>
	<path d="M349.206,45.757h4.625v2.442h-4.625l-0.074,11.471c0,2.516,0.999,2.997,2.442,2.997h1.924v2.331h-2.479
		c-3.293,0-4.81-1.221-4.772-5.587l0.036-11.212h-3.034v-2.442h3.034l0.037-6.624h2.961L349.206,45.757z"/>
	<path d="M357.529,49.346h18.316v2.183h-18.316V49.346z M357.529,55.082h18.316v2.22h-18.316V55.082z"/>
	<path fill="#0000FF" d="M170.72,95.563v0.333c0,1.147,0.148,2.146,0.518,2.997c1.147,2.553,3.293,3.959,6.697,3.959
		c1.961,0,4.404-0.703,6.328-2.072h0.703v2.406c-1.998,1.738-4.958,2.33-6.994,2.33c-6.624,0-10.287-3.404-10.287-10.213
		c0-5.476,3.256-9.953,9.103-9.953c6.513,0,8.918,4.478,9.103,10.213H170.72z M170.905,93.268h11.693
		c-0.186-3.145-2.332-5.402-5.772-5.402C173.273,87.865,171.459,89.863,170.905,93.268z"/>
	<path fill="#0000FF" d="M188.997,100.373h0.999c1.036,1.443,3.812,2.813,6.216,2.813c3.108,0,4.7-1.074,4.7-3.035
		c0-4.033-11.841-2.738-11.841-9.287c0-3.256,2.479-5.439,7.659-5.439c2.923,0,5.032,0.925,6.143,1.555v3.07h-0.889
		c-0.703-0.814-2.479-2.368-5.254-2.368c-3.22,0-4.699,1.147-4.699,2.775c0,4.662,11.841,2.664,11.841,9.547
		c0,3.403-2.258,5.513-7.696,5.513c-2.85,0-5.366-0.998-7.179-2.22V100.373z"/>
	<path fill="#0000FF" d="M211.789,85.757h4.625v2.442h-4.625l-0.074,11.471c0,2.516,0.999,2.997,2.442,2.997h1.924v2.331h-2.479
		c-3.293,0-4.81-1.221-4.773-5.588l0.037-11.211h-3.034v-2.442h3.034l0.037-6.624h2.961L211.789,85.757z"/>
	<path d="M229.031,85.313c5.847,0,9.806,3.922,9.806,10.027c0,6.217-3.812,10.176-9.806,10.176c-5.884,0-9.731-3.996-9.731-10.064
		C219.3,89.346,223.222,85.313,229.031,85.313z M229.031,102.963c3.737,0,6.66-2.85,6.66-7.512c0-4.958-2.886-7.622-6.66-7.622
		c-3.552,0-6.586,2.664-6.586,7.622C222.445,100.076,225.479,102.963,229.031,102.963z"/>
	<path d="M256.967,92.973c0-3.183-2.295-4.848-5.439-4.848c-2.221,0-5.588,1.738-5.735,4.477v12.396h-2.998V85.757h2.85v3.367h0.519
		c1.184-2.664,3.848-3.663,6.401-3.663c4.366,0,7.4,2.146,7.4,7.252v12.285h-2.997V92.973z"/>
	<path d="M264.921,81.058v-3.96h3.034v3.96H264.921z M264.921,104.998V85.757h3.034v19.241H264.921z"/>
	<path d="M285.493,102.704h-0.481c-1.628,1.998-3.737,2.812-6.327,2.812c-3.812,0-6.66-2.479-6.66-5.809
		c0-3.959,2.997-5.477,7.548-6.55c1.295-0.259,4.145-0.703,5.477-0.888l0.296-0.481c-0.555-2.22-2.405-3.737-5.032-3.737
		c-2.886,0-4.478,0.889-6.327,2.516h-0.556v-2.701c1.665-1.369,3.849-2.479,6.957-2.479c5.069,0,8.178,2.924,8.178,7.586
		c0,4.292-0.037,7.77-0.037,12.025h-3.034V102.704z M285.493,99.041l0.037-4.07c-1.629,0.259-3.997,0.629-4.996,0.813
		c-3.811,0.703-5.402,1.776-5.402,3.886s1.962,3.182,4.811,3.182c2.035,0,5.551-1.258,5.551-3.885V99.041z"/>
</g>
</svg>
