<?xml version="1.0" encoding="utf-8"?>
<!-- Generator: Adobe Illustrator 16.0.0, SVG Export Plug-In . SVG Version: 6.00 Build 0)  -->
<!DOCTYPE svg PUBLIC "-//W3C//DTD SVG 1.1//EN" "http://www.w3.org/Graphics/SVG/1.1/DTD/svg11.dtd">
<svg version="1.1" id="Layer_1" xmlns="http://www.w3.org/2000/svg" xmlns:xlink="http://www.w3.org/1999/xlink" x="0px" y="0px"
	 width="400px" height="150px" viewBox="0 0 400 150" enable-background="new 0 0 400 150" xml:space="preserve">
<meta  content="svg/xml" http-equiv="Content-Type"></meta>
<g>
	<g>
		<g>
			<g>
				<polygon fill="#0000FF" points="102.302,45.001 102.302,25 82.304,25 82.304,45.001 82.304,64.998 102.302,64.998 
					122.304,64.998 122.304,45.001 				"/>
				<polygon fill="#0000FF" points="42.303,25 42.303,45.001 22.305,45.001 42.303,64.997 42.303,64.998 62.303,64.998 
					62.303,45.001 62.303,25 				"/>
				<polygon fill="#0000FF" points="102.302,85 82.304,85 82.304,105 82.308,105 102.302,124.994 102.302,105 122.304,105 
					122.304,85 				"/>
				<polygon points="42.303,85 42.303,85.004 22.305,105 42.303,105 42.303,125 62.303,105 62.303,85 				"/>
			</g>
		</g>
	</g>
	<g>
		<g>
			<g enable-background="new    ">
				<path fill="#0000FF" d="M148.184,39.001h3.999l6.919,16.118c0.8,1.839,1.399,3.599,1.359,3.959h0.16l3.56-20.077h4.079
					l-4.639,25.996h-4.199l-7.559-17.237c-0.4-0.92-0.681-2.119-0.681-2.119h-0.12l-3.319,19.356h-4.199L148.184,39.001z"/>
				<path fill="#0000FF" d="M169.904,58.878c0-3.52,1.64-8.078,4.318-10.798c1.76-1.8,4.279-2.96,6.68-2.96
					c4.519,0,5.999,2.64,5.999,6.64c0,3.719-1.68,8.198-4.359,10.918c-1.76,1.76-4.239,2.919-6.719,2.919
					C171.983,65.597,169.904,62.997,169.904,58.878z M176.982,62.277c3.04,0,5.72-5.759,5.72-9.318c0-2.279-0.36-4.52-2.6-4.52
					c-3.479,0-5.999,5.88-5.999,9.318C174.104,60.078,174.503,62.277,176.982,62.277z"/>
				<path fill="#0000FF" d="M192.463,45.761c0,0,2.239-0.36,3.72-0.44l-1.12,5.759c-0.2,1.04-0.68,2.4-0.84,2.88
					c1.72-3.6,3.279-5.719,4.439-6.839c1.6-1.52,2.959-1.76,4.959-1.76l-1.16,4.279c0,0-0.24-0.08-0.68-0.08
					c-2.72,0-6.199,5.879-7.519,8.559l-1.36,6.879h-4.159L192.463,45.761z"/>
				<path fill="#0000FF" d="M211.822,45.681h6.639l-0.6,3.079h-6.68l-1.959,9.719c-0.16,0.72-0.32,1.68-0.32,2.319
					c0,0.52,0.24,1.12,0.88,1.12c1.04,0,2.479-1.12,4.239-2.88l1.84,2.279c-0.84,0.92-2.439,2.32-3.68,3.12
					c-1.08,0.72-2.24,1.119-3.842,1.119c-1.561,0-3.64-0.88-3.64-3.879c0-0.6,0.118-1.28,0.278-2.08l2.158-10.838h-3.158
					c0.199-1.2,0.84-2.8,1.08-3.079h2.719l0.922-4.56c1.078-0.56,2.96-1.24,4.316-1.28L211.822,45.681z"/>
				<path fill="#0000FF" d="M224.143,37.962c0,0,2.319-0.521,4.239-0.561l-2.239,11.118c-0.397,1.88-1.16,3.72-1.24,3.88
					c0.16-0.24,1.803-2.88,3.603-4.72c1.642-1.64,3.199-2.439,5.159-2.439c2.396,0,4.197,1.08,4.197,4.039
					c0,0.84-0.278,1.88-0.521,2.84l-2.118,8.198l0.398,4.64l-4.398,0.24l-0.158-4.8l1.918-7.719c0.16-0.64,0.281-1.399,0.281-1.839
					c0-1.04-0.479-1.561-1.399-1.561c-0.96,0-1.96,0.721-3.079,1.84c-1.721,1.72-2.84,3.439-3.959,4.959l-1.721,8.919h-4.198
					L224.143,37.962z"/>
			</g>
			<g enable-background="new    ">
				<path fill="#0000FF" d="M260.46,43.721v9.398h9.038v2.399h-9.038v9.479h-2.56v-9.479h-9.039v-2.399h9.039v-9.398H260.46z"/>
			</g>
			<g enable-background="new    ">
				<path fill="#0000FF" d="M283.779,57.238c-0.039,0.48-0.08,1.04-0.08,1.68c0,2.239,0.761,3.239,2.121,3.239
					c1.639,0,3.396-1.079,5.918-3.639l1.84,2.079c-1,1.16-2.119,2.24-3.119,3c-1.52,1.199-3.398,2.039-5.76,2.039
					c-2.959,0-5.039-1.68-5.039-6.438c0-3.64,1.439-8.639,4.561-11.519c1.76-1.64,3.879-2.72,6.998-2.72s4.879,1.8,4.879,4.08
					c0,1.359-0.76,2.959-2,4.199C292.379,54.919,288.059,56.519,283.779,57.238z M284.38,54.319c2.438-0.521,5.438-1.561,6.599-2.64
					c0.603-0.561,1.08-1.48,1.08-2.32c0-1.159-0.76-1.439-1.76-1.439s-2.561,0.479-3.398,0.92
					C285.82,50.399,285.02,52.159,284.38,54.319z"/>
				<path fill="#0000FF" d="M308.539,61.878c0-1.28,0.479-3.399,0.479-3.399c-1.84,3.319-4.56,6.919-8.275,6.919
					c-2.4,0-3.842-1.84-3.842-5.959c0-6.239,5.199-14.198,11.317-14.198c2.239,0,4.759,0.28,7.238,0.64l-3.079,12.559l0.28,6.438
					l-4.08,0.4L308.539,61.878z M310.777,48.68c-0.639-0.12-1.799-0.24-2.799-0.24c-3.319,0-6.92,5.6-6.92,10.519
					c0,1.8,0.521,2.359,1.479,2.359c1.92,0,4.72-3.599,6.561-5.999C309.338,54.358,310.098,51.279,310.777,48.68z"/>
				<path fill="#0000FF" d="M317.381,60.718c1.479,0.92,3.318,1.52,4.559,1.52c1.961,0,3.479-0.64,3.479-2.279
					c0-0.84-0.479-1.6-1.28-2.279l-2.438-2.04c-1.641-1.359-2.602-2.6-2.602-4.64c0-3.559,3.159-5.719,7.479-5.719
					c2.041,0,4.318,0.72,5.521,1.6c-0.562,1.52-1.722,3.08-1.722,3.08c-1.12-0.721-2.562-1.28-3.919-1.28
					c-1.88,0-3.318,0.64-3.318,2.12c0,0.8,0.642,1.438,1.602,2.279l2.479,2.08c1.559,1.279,2.358,2.839,2.358,4.679
					c0,3.72-3.521,5.759-7.519,5.759c-2.08,0-4.399-0.6-5.92-1.6L317.381,60.718z"/>
				<path fill="#0000FF" d="M341.418,45.681h6.639l-0.6,3.079h-6.68l-1.959,9.719c-0.16,0.72-0.32,1.68-0.32,2.319
					c0,0.52,0.24,1.12,0.881,1.12c1.039,0,2.479-1.12,4.238-2.88l1.84,2.279c-0.84,0.92-2.439,2.32-3.68,3.12
					c-1.079,0.72-2.239,1.119-3.84,1.119c-1.562,0-3.642-0.88-3.642-3.879c0-0.6,0.12-1.28,0.28-2.08l2.156-10.838h-3.156
					c0.197-1.2,0.84-2.8,1.08-3.079h2.72l0.92-4.56c1.08-0.56,2.959-1.24,4.318-1.28L341.418,45.681z"/>
			</g>
			<g enable-background="new    ">
				<path fill="#0000FF" d="M357.059,51.52v-2.4h20.637v2.399L357.059,51.52L357.059,51.52z M357.059,59.358v-2.4h20.637v2.4
					H357.059z"/>
			</g>
		</g>
		<g>
			<g enable-background="new    ">
				<path d="M143.384,78.882h18.797c0,1.279-0.72,4.239-1.199,5.519h-9.278v4.479h8.238c0,1.64-0.56,4.438-1.239,5.8h-6.999v4.6
					h9.278V105h-15.957V84.4h-1.641V78.882z"/>
				<path d="M164.384,99.639c1.12,0.439,3.399,0.879,5.439,0.879c1.319,0,2.04-0.316,2.04-1.119c0-0.479-0.24-0.959-0.96-1.317
					l-3.08-1.562c-1.68-0.84-3.679-2.317-3.679-5.76c0-4.359,4.039-6.158,8.958-6.158c1.8,0,3.72,0.239,5.64,0.68
					c0,1.32-0.681,4.039-1.4,5.119c-1.359-0.438-3.199-0.721-4.799-0.721c-1.12,0-1.68,0.479-1.68,1.12
					c0,0.64,0.399,1.119,1.279,1.521l3.08,1.438c1.72,0.8,3.839,2.359,3.839,5.759c0,4.439-3.919,5.92-8.278,5.92
					c-2.16,0-4.439-0.357-6.399-0.92V99.639L164.384,99.639z"/>
				<path d="M190.383,85.2h5.039V90h-5.039l-0.04,7.398c0,2.56,0.8,3.039,2.159,3.039c0.68,0,1.6-0.24,2.479-0.479
					c0.44,1.08,0.76,3.479,0.88,4.56c-1.84,0.68-3.52,1.08-5.679,1.08c-3.359,0-6.399-1.438-6.359-6.84l0.04-8.758h-3.6
					c0-1.521,0.44-3.359,1.36-4.8h2.359l0.04-3.279c0,0,3.8-1.8,6.399-2L190.383,85.2z"/>
				<path d="M207.742,84.521c5.799,0,10.158,3.479,10.158,10.797c0,7.438-4.521,10.238-10.158,10.238
					c-5.84,0-9.998-2.918-9.998-10.277C197.744,88.08,201.943,84.521,207.742,84.521z M207.742,100.479
					c2.238,0,3.199-2.317,3.199-5.24c0-3.838-0.92-5.598-3.199-5.598c-2.24,0-3.199,1.959-3.199,5.639
					C204.543,98.238,205.343,100.479,207.742,100.479z"/>
				<path d="M233.063,92.561c0-2.24-1.358-2.479-2.521-2.479c-0.84,0-1.681,0.318-2.44,0.762V105h-6.998V85.48
					c1.723-0.683,4.279-1.041,6.879-1.041V87.2c1.643-1.36,3.802-2.56,5.762-2.56c3.919,0,6.316,1.799,6.316,6.758v13.599h-6.998
					V92.561L233.063,92.561z"/>
				<path d="M248.582,76.682c1.521,0,3.8,1.721,3.8,3.239c0,1.44-2.239,3.24-3.8,3.24c-1.52,0-3.799-1.8-3.799-3.24
					C244.783,78.361,247.104,76.682,248.582,76.682z M245.021,86.04c1.721-0.681,4.317-1.04,6.92-1.04v19.997h-6.92V86.04z"/>
				<path d="M274.979,103.357c-1.438,1.238-3.838,2.078-6.158,2.238l-1.357-1.918c-1.08,0.959-2.521,1.879-5.521,1.879
					c-3.719,0-6.236-2.722-6.236-5.722c0-1.88,0.959-3.879,2.602-4.839c1.959-1.16,5.236-1.643,7.996-1.803v-0.799
					c0-1.721-1-2.521-2.8-2.521c-2.237,0-3.959,0.521-5.159,1.119l-1.719-4.079c1.719-1,5.275-2.439,8.237-2.439
					c1.761,0,3.278,0.201,4.64,1.121c1.723,1.119,3.279,2.799,3.24,5.918l-0.08,9.039L274.979,103.357z M266.182,100.998v-4.119
					c-2.357,0.199-4.039,1.039-4.039,2.439c0,1.158,0.879,2.078,2.238,2.078C264.9,101.396,265.541,101.236,266.182,100.998z"/>
			</g>
		</g>
	</g>
</g>
</svg>
