<?xml version="1.0" encoding="utf-8"?>
<!-- Generator: Adobe Illustrator 16.0.0, SVG Export Plug-In . SVG Version: 6.00 Build 0)  -->
<!DOCTYPE svg PUBLIC "-//W3C//DTD SVG 1.1//EN" "http://www.w3.org/Graphics/SVG/1.1/DTD/svg11.dtd">
<svg version="1.1" id="Layer_1" xmlns="http://www.w3.org/2000/svg" xmlns:xlink="http://www.w3.org/1999/xlink" x="0px" y="0px"
	 width="400px" height="150px" viewBox="0 0 400 150" enable-background="new 0 0 400 150" xml:space="preserve">
<meta  http-equiv="Content-Type" content="svg/xml"></meta>
<g>
	<g>
		<g>
			<g>
				<g>
					<polygon fill="#0000FF" points="126.28,45.001 126.28,25 106.282,25 106.282,45.001 106.282,64.998 126.28,64.998 
						146.282,64.998 146.282,45.001 					"/>
					<polygon fill="#0000FF" points="66.281,25 66.281,45.001 46.283,45.001 66.281,64.997 66.281,64.998 86.281,64.998 
						86.281,45.001 86.281,25 					"/>
					<polygon fill="#0000FF" points="126.28,85 106.282,85 106.282,105 106.286,105 126.28,124.994 126.28,105 146.282,105 
						146.282,85 					"/>
					<polygon points="66.281,85 66.281,85.004 46.283,105 66.281,105 66.281,125 86.281,105 86.281,85 					"/>
				</g>
			</g>
		</g>
	</g>
	<g>
		<path fill="#0000FF" d="M170.72,55.563v0.333c0,1.147,0.148,2.146,0.518,2.997c1.147,2.553,3.293,3.959,6.697,3.959
			c1.961,0,4.404-0.703,6.328-2.072h0.703v2.405c-1.998,1.739-4.958,2.331-6.994,2.331c-6.624,0-10.287-3.404-10.287-10.213
			c0-5.476,3.256-9.954,9.103-9.954c6.513,0,8.918,4.478,9.103,10.213H170.72z M170.905,53.268h11.693
			c-0.186-3.145-2.332-5.402-5.772-5.402C173.273,47.866,171.459,49.864,170.905,53.268z"/>
		<path d="M203.946,52.972c0-3.182-2.295-4.847-5.439-4.847c-2.221,0-5.588,1.739-5.735,4.477v12.396h-2.998V45.757h2.85v3.367
			h0.518c1.185-2.664,3.849-3.663,6.402-3.663c4.366,0,7.4,2.146,7.4,7.252v12.285h-2.997V52.972z"/>
		<path d="M226.405,62.63h-0.556c-1.332,1.813-3.182,2.738-5.735,2.738c-5.217,0-9.287-3.922-9.287-9.769
			c0-6.253,4.514-10.25,9.694-10.25c2.813,0,4.515,0.888,5.439,2.701h0.555v-2.294h2.961v18.501c0,5.847-2.998,8.881-9.658,8.881
			c-2.294,0-6.143-0.888-7.771-2.257v-3.108h0.555c1.925,1.184,4.736,2.442,7.475,2.442c4.107,0,6.328-1.332,6.328-6.66V62.63z
			 M226.405,57.968v-6.402c-0.37-2.257-2.738-3.626-5.365-3.626c-3.479,0-7.031,2.479-7.031,7.548c0,4.588,3.33,7.29,6.92,7.29
			C223.556,62.778,226.035,60.78,226.405,57.968z"/>
		<path d="M234.692,41.058v-3.959h3.034v3.959H234.692z M234.692,64.998V45.757h3.034v19.241H234.692z"/>
		<path d="M257.004,52.972c0-3.182-2.295-4.847-5.439-4.847c-2.221,0-5.588,1.739-5.735,4.477v12.396h-2.998V45.757h2.85v3.367
			h0.519c1.184-2.664,3.848-3.663,6.401-3.663c4.366,0,7.4,2.146,7.4,7.252v12.285h-2.997V52.972z"/>
		<path fill="#0000FF" d="M266.882,55.563v0.333c0,1.147,0.147,2.146,0.518,2.997c1.147,2.553,3.294,3.959,6.698,3.959
			c1.961,0,4.403-0.703,6.327-2.072h0.703v2.405c-1.998,1.739-4.959,2.331-6.994,2.331c-6.623,0-10.286-3.404-10.286-10.213
			c0-5.476,3.256-9.954,9.103-9.954c6.513,0,8.918,4.478,9.103,10.213H266.882z M267.066,53.268h11.693
			c-0.186-3.145-2.331-5.402-5.772-5.402C269.435,47.866,267.622,49.864,267.066,53.268z"/>
		<path fill="#0000FF" d="M287.824,55.563v0.333c0,1.147,0.147,2.146,0.518,2.997c1.147,2.553,3.294,3.959,6.698,3.959
			c1.961,0,4.403-0.703,6.327-2.072h0.703v2.405c-1.998,1.739-4.959,2.331-6.994,2.331c-6.623,0-10.286-3.404-10.286-10.213
			c0-5.476,3.256-9.954,9.103-9.954c6.513,0,8.918,4.478,9.103,10.213H287.824z M288.009,53.268h11.693
			c-0.186-3.145-2.331-5.402-5.772-5.402C290.377,47.866,288.564,49.864,288.009,53.268z"/>
		<path d="M306.952,45.757h3.108v3.367h0.519c0.518-2.331,1.961-3.515,4.181-3.515h2.664v2.664h-2.664
			c-2.294,0-4.366,2.331-4.588,5.55v11.175h-3.22V45.757z"/>
		<path d="M321.309,55.563v0.333c0,1.147,0.147,2.146,0.518,2.997c1.147,2.553,3.294,3.959,6.698,3.959
			c1.961,0,4.403-0.703,6.327-2.072h0.703v2.405c-1.998,1.739-4.959,2.331-6.994,2.331c-6.623,0-10.286-3.404-10.286-10.213
			c0-5.476,3.256-9.954,9.103-9.954c6.513,0,8.918,4.478,9.103,10.213H321.309z M321.493,53.268h11.693
			c-0.186-3.145-2.331-5.402-5.772-5.402C323.861,47.866,322.049,49.864,321.493,53.268z"/>
		<path d="M357.866,36.839v28.159h-3.108V62.63h-0.555c-1.406,1.887-3.294,2.738-5.736,2.738c-5.254,0-9.25-3.922-9.25-9.769
			c0-6.253,4.478-10.25,9.657-10.25c2.331,0,5.255,1.073,5.958,2.997V36.839H357.866z M354.832,57.265v-5.144
			c0-2.627-2.554-4.181-5.439-4.181c-3.441,0-6.994,2.479-6.994,7.548c0,4.588,3.294,7.29,6.883,7.29
			C352.131,62.778,354.832,60.41,354.832,57.265z"/>
		<path d="M372.701,41.058v-3.959h3.034v3.959H372.701z M372.701,64.998V45.757h3.034v19.241H372.701z"/>
		<path d="M395.013,52.972c0-3.182-2.295-4.847-5.439-4.847c-2.221,0-5.588,1.739-5.735,4.477v12.396h-2.998V45.757h2.85v3.367
			h0.518c1.185-2.664,3.849-3.663,6.402-3.663c4.366,0,7.4,2.146,7.4,7.252v12.285h-2.997V52.972z"/>
		<path fill="#0000FF" d="M170.72,95.563v0.333c0,1.147,0.148,2.146,0.518,2.997c1.147,2.553,3.293,3.959,6.697,3.959
			c1.961,0,4.404-0.703,6.328-2.072h0.703v2.406c-1.998,1.738-4.958,2.33-6.994,2.33c-6.624,0-10.287-3.404-10.287-10.213
			c0-5.476,3.256-9.953,9.103-9.953c6.513,0,8.918,4.478,9.103,10.213H170.72z M170.905,93.268h11.693
			c-0.186-3.145-2.332-5.402-5.772-5.402C173.273,87.865,171.459,89.863,170.905,93.268z"/>
		<path fill="#0000FF" d="M188.997,100.373h0.999c1.036,1.443,3.812,2.813,6.216,2.813c3.108,0,4.7-1.074,4.7-3.035
			c0-4.033-11.841-2.738-11.841-9.287c0-3.256,2.479-5.439,7.659-5.439c2.923,0,5.032,0.925,6.143,1.555v3.07h-0.889
			c-0.703-0.814-2.479-2.368-5.254-2.368c-3.22,0-4.699,1.147-4.699,2.775c0,4.662,11.841,2.664,11.841,9.547
			c0,3.403-2.258,5.513-7.696,5.513c-2.85,0-5.366-0.998-7.179-2.22V100.373z"/>
		<path fill="#0000FF" d="M211.789,85.757h4.625v2.442h-4.625l-0.074,11.471c0,2.516,0.999,2.997,2.442,2.997h1.924v2.331h-2.479
			c-3.293,0-4.81-1.221-4.773-5.588l0.037-11.211h-3.034v-2.442h3.034l0.037-6.624h2.961L211.789,85.757z"/>
		<path d="M229.031,85.313c5.847,0,9.806,3.922,9.806,10.027c0,6.217-3.812,10.176-9.806,10.176c-5.884,0-9.731-3.996-9.731-10.064
			C219.3,89.346,223.222,85.313,229.031,85.313z M229.031,102.963c3.737,0,6.66-2.85,6.66-7.512c0-4.958-2.886-7.622-6.66-7.622
			c-3.552,0-6.586,2.664-6.586,7.622C222.445,100.076,225.479,102.963,229.031,102.963z"/>
		<path d="M256.967,92.973c0-3.183-2.295-4.848-5.439-4.848c-2.221,0-5.588,1.738-5.735,4.477v12.396h-2.998V85.757h2.85v3.367
			h0.519c1.184-2.664,3.848-3.663,6.401-3.663c4.366,0,7.4,2.146,7.4,7.252v12.285h-2.997V92.973z"/>
		<path d="M264.921,81.058v-3.96h3.034v3.96H264.921z M264.921,104.998V85.757h3.034v19.241H264.921z"/>
		<path d="M285.493,102.704h-0.481c-1.628,1.998-3.737,2.812-6.327,2.812c-3.812,0-6.66-2.479-6.66-5.809
			c0-3.959,2.997-5.477,7.548-6.55c1.295-0.259,4.145-0.703,5.477-0.888l0.296-0.481c-0.555-2.22-2.405-3.737-5.032-3.737
			c-2.886,0-4.478,0.889-6.327,2.516h-0.556v-2.701c1.665-1.369,3.849-2.479,6.957-2.479c5.069,0,8.178,2.924,8.178,7.586
			c0,4.292-0.037,7.77-0.037,12.025h-3.034V102.704z M285.493,99.041l0.037-4.07c-1.629,0.259-3.997,0.629-4.996,0.813
			c-3.811,0.703-5.402,1.776-5.402,3.886s1.962,3.182,4.811,3.182c2.035,0,5.551-1.258,5.551-3.885V99.041z"/>
	</g>
</g>
</svg>
