<?xml version="1.0" encoding="utf-8"?>
<!DOCTYPE svg PUBLIC "-//W3C//DTD SVG 1.1//EN" "http://www.w3.org/Graphics/SVG/1.1/DTD/svg11.dtd">
<svg version="1.1" id="Layer_1" xmlns="http://www.w3.org/2000/svg" xmlns:xlink="http://www.w3.org/1999/xlink" x="0px" y="0px"
	 width="400px" height="150px" viewBox="0 0 400 150" enable-background="new 0 0 400 150" xml:space="preserve">
<meta http-equiv="Content-Type" content="svg/xml" />	 
<g>
	<g>
		<g>
			<g>
				<polygon fill="#1791FF" points="124.62,45.001 124.62,25 104.622,25 104.622,45.001 104.622,64.998 124.62,64.998 
					144.622,64.998 144.622,45.001 				"/>
				<polygon fill="#1791FF" points="64.621,25 64.621,45.001 44.623,45.001 64.621,64.997 64.621,64.998 84.621,64.998 
					84.621,45.001 84.621,25 				"/>
				<polygon fill="#1791FF" points="124.62,85 104.622,85 104.622,105 104.625,105 124.62,124.994 124.62,105 144.622,105 
					144.622,85 				"/>
				<polygon fill="#607D8B" points="64.621,85 64.621,85.004 44.623,105 64.621,105 64.621,125 84.621,105 84.621,85 				"/>
			</g>
		</g>
	</g>
	<g>
		<g enable-background="new    ">
			<path fill="#1791FF" d="M182.419,48.88H182.3c0,0-0.32,0.96-0.801,2.039l-7.158,14.678h-3.52l-3.84-26.596h4.319l2.12,17.277
				c0.16,1.479,0.08,3.52,0.08,3.52h0.319c0,0,0.761-2.199,1.36-3.479l6.279-13.397l-0.601-3.92h4.079l2.4,17.317
				c0.199,1.439,0.319,3.439,0.319,3.439h0.28c0.12-0.359,0.84-2.199,1.439-3.479l8.039-17.396h4.479l-13.279,26.715h-3.52
				L182.419,48.88z"/>
			<path fill="#1791FF" d="M204.661,57.238c-0.04,0.48-0.08,1.04-0.08,1.68c0,2.239,0.76,3.239,2.119,3.239
				c1.641,0,3.399-1.079,5.92-3.639l1.839,2.079c-0.999,1.16-2.119,2.24-3.119,3c-1.52,1.199-3.398,2.039-5.759,2.039
				c-2.96,0-5.039-1.68-5.039-6.438c0-3.64,1.438-8.639,4.56-11.519c1.76-1.64,3.879-2.72,6.998-2.72c3.12,0,4.879,1.8,4.879,4.08
				c0,1.359-0.76,2.959-1.998,4.199C213.26,54.919,208.939,56.519,204.661,57.238z M205.261,54.319
				c2.439-0.521,5.439-1.561,6.599-2.64c0.602-0.561,1.08-1.48,1.08-2.32c0-1.159-0.76-1.439-1.76-1.439s-2.56,0.479-3.398,0.92
				C206.7,50.399,205.9,52.159,205.261,54.319z"/>
			<path fill="#1791FF" d="M223.061,37.922c0,0,2.2-0.48,4.359-0.521l-5.079,27.596h-4.278L223.061,37.922z"/>
			<path fill="#1791FF" d="M242.898,49.72c-0.721-0.56-1.881-1.16-3.439-1.16c-3.68,0-6.919,5.039-6.919,9.879
				c0,2.52,1.04,3.479,2.479,3.479c1.561,0,3.318-1.561,5.078-3.479l2.041,2.359c-2.681,3.359-5.521,4.799-8.279,4.799
				c-3.08,0-5.52-2.039-5.52-6.519c0-6.759,4.398-13.958,11.639-13.958c1.879,0,3.92,0.8,4.879,1.72
				C244.18,48.32,242.898,49.72,242.898,49.72z"/>
			<path fill="#1791FF" d="M245.102,58.878c0-3.52,1.64-8.078,4.318-10.798c1.76-1.8,4.279-2.96,6.68-2.96
				c4.52,0,5.998,2.64,5.998,6.64c0,3.719-1.68,8.198-4.359,10.918c-1.76,1.76-4.237,2.919-6.719,2.919
				C247.182,65.597,245.102,62.997,245.102,58.878z M252.18,62.277c3.039,0,5.719-5.759,5.719-9.318c0-2.279-0.358-4.52-2.6-4.52
				c-3.479,0-5.998,5.88-5.998,9.318C249.301,60.078,249.7,62.277,252.18,62.277z"/>
			<path fill="#1791FF" d="M267.74,45.84c0,0,2.238-0.439,4.078-0.56l-0.879,4.079c-0.24,1.2-0.801,3.2-0.801,3.2
				s1.84-2.96,3.721-4.88c1.639-1.64,3.158-2.439,5.238-2.439c2.319,0,3.92,1.08,3.92,3.999c0,0.48-0.4,1.92-0.521,2.24
				c0.12-0.2,1.24-1.92,2.999-3.68c1.601-1.6,3.16-2.6,5.239-2.6c2.24,0,4.119,1.08,4.119,4.039c0,0.681-0.16,1.521-0.359,2.24
				l-2.239,8.838l0.399,4.64l-4.438,0.24l-0.2-4.8l1.92-7.759c0.16-0.6,0.239-1.279,0.239-1.839c0-1.04-0.52-1.521-1.358-1.521
				c-0.92,0-1.961,0.721-3.08,1.84c-1.719,1.72-2.799,3.279-3.879,4.68l-1,4.519l0.16,4.68l-4.399,0.08l0.04-4.64l1.8-7.719
				c0.16-0.64,0.239-1.319,0.239-1.879c0-1.04-0.559-1.561-1.479-1.561c-0.962,0-1.962,0.721-3.08,1.84
				c-1.721,1.72-3.959,4.959-3.959,4.959l-1.642,8.919h-4.358L267.74,45.84z"/>
			<path fill="#1791FF" d="M301.58,57.238c-0.041,0.48-0.08,1.04-0.08,1.68c0,2.239,0.76,3.239,2.119,3.239
				c1.641,0,3.4-1.079,5.92-3.639l1.839,2.079c-0.999,1.16-2.12,2.24-3.119,3c-1.521,1.199-3.399,2.039-5.759,2.039
				c-2.96,0-5.039-1.68-5.039-6.438c0-3.64,1.439-8.639,4.559-11.519c1.76-1.64,3.879-2.72,7-2.72c3.119,0,4.879,1.8,4.879,4.08
				c0,1.359-0.76,2.959-2,4.199C310.178,54.919,305.859,56.519,301.58,57.238z M302.18,54.319c2.439-0.521,5.439-1.561,6.6-2.64
				c0.601-0.561,1.08-1.48,1.08-2.32c0-1.159-0.76-1.439-1.76-1.439s-2.561,0.479-3.399,0.92
				C303.619,50.399,302.818,52.159,302.18,54.319z"/>
			<path fill="#1791FF" d="M330.979,45.681h6.64l-0.601,3.079h-6.68l-1.959,9.719c-0.16,0.72-0.32,1.68-0.32,2.319
				c0,0.52,0.24,1.12,0.881,1.12c1.039,0,2.479-1.12,4.238-2.88l1.84,2.279c-0.84,0.92-2.438,2.32-3.68,3.12
				c-1.079,0.72-2.238,1.119-3.839,1.119c-1.56,0-3.64-0.88-3.64-3.879c0-0.6,0.119-1.28,0.279-2.08l2.159-10.838h-3.159
				c0.2-1.2,0.84-2.8,1.08-3.079h2.721l0.92-4.56c1.08-0.56,2.959-1.24,4.317-1.28L330.979,45.681z"/>
			<path fill="#1791FF" d="M338.38,58.878c0-3.52,1.64-8.078,4.319-10.798c1.76-1.8,4.279-2.96,6.679-2.96
				c4.519,0,5.999,2.64,5.999,6.64c0,3.719-1.68,8.198-4.359,10.918c-1.76,1.76-4.238,2.919-6.719,2.919
				C340.459,65.597,338.38,62.997,338.38,58.878z M345.459,62.277c3.039,0,5.719-5.759,5.719-9.318c0-2.279-0.359-4.52-2.6-4.52
				c-3.479,0-5.999,5.88-5.999,9.318C342.579,60.078,342.979,62.277,345.459,62.277z"/>
		</g>
		<g>
			<g enable-background="new    ">
				<path fill="#607D8B" d="M165.702,78.882h18.797c0,1.279-0.72,4.239-1.2,5.519h-9.278v4.479h8.239c0,1.64-0.561,4.438-1.24,5.8
					h-6.999v4.6h9.278v5.719h-15.957V84.4h-1.64V78.882z"/>
				<path fill="#607D8B" d="M186.702,99.639c1.12,0.439,3.399,0.879,5.439,0.879c1.319,0,2.039-0.318,2.039-1.119
					c0-0.479-0.24-0.959-0.96-1.319l-3.079-1.56c-1.68-0.84-3.68-2.319-3.68-5.76c0-4.359,4.039-6.158,8.959-6.158
					c1.8,0,3.719,0.239,5.639,0.68c0,1.32-0.68,4.039-1.398,5.119c-1.36-0.439-3.2-0.721-4.8-0.721c-1.119,0-1.68,0.479-1.68,1.12
					c0,0.64,0.4,1.119,1.28,1.521l3.079,1.438c1.72,0.8,3.84,2.359,3.84,5.759c0,4.439-3.92,5.92-8.279,5.92
					c-2.159,0-4.438-0.359-6.398-0.92V99.639L186.702,99.639z"/>
				<path fill="#607D8B" d="M212.7,85.2h5.039V90H212.7l-0.04,7.398c0,2.56,0.8,3.039,2.16,3.039c0.68,0,1.6-0.24,2.479-0.479
					c0.439,1.08,0.76,3.479,0.881,4.56c-1.841,0.68-3.521,1.08-5.681,1.08c-3.358,0-6.397-1.439-6.358-6.84L206.182,90h-3.601
					c0-1.521,0.438-3.359,1.358-4.8h2.36l0.04-3.279c0,0,3.799-1.8,6.398-2L212.7,85.2z"/>
				<path fill="#607D8B" d="M230.061,84.521c5.799,0,10.157,3.479,10.157,10.797c0,7.439-4.519,10.238-10.157,10.238
					c-5.84,0-9.998-2.918-9.998-10.277C220.063,88.08,224.261,84.521,230.061,84.521z M230.061,100.479
					c2.239,0,3.199-2.319,3.199-5.24c0-3.838-0.92-5.598-3.199-5.598c-2.24,0-3.199,1.959-3.199,5.639
					C226.859,98.238,227.66,100.479,230.061,100.479z"/>
				<path fill="#607D8B" d="M255.379,92.561c0-2.24-1.359-2.48-2.52-2.48c-0.84,0-1.68,0.32-2.439,0.761v14.157h-6.999V85.48
					c1.72-0.681,4.279-1.041,6.88-1.041V87.2c1.639-1.36,3.799-2.56,5.758-2.56c3.92,0,6.319,1.799,6.319,6.758v13.599h-6.999
					V92.561L255.379,92.561z"/>
				<path fill="#607D8B" d="M270.9,76.682c1.52,0,3.799,1.721,3.799,3.239c0,1.44-2.239,3.24-3.799,3.24
					c-1.521,0-3.799-1.8-3.799-3.24C267.102,78.361,269.421,76.682,270.9,76.682z M267.341,86.04c1.72-0.681,4.319-1.04,6.919-1.04
					v19.997h-6.919V86.04z"/>
				<path fill="#607D8B" d="M297.298,103.357c-1.44,1.238-3.839,2.078-6.159,2.238l-1.359-1.918c-1.079,0.959-2.52,1.879-5.52,1.879
					c-3.719,0-6.238-2.72-6.238-5.72c0-1.88,0.959-3.879,2.601-4.839c1.959-1.16,5.237-1.641,7.998-1.801v-0.799
					c0-1.721-1-2.521-2.8-2.521c-2.239,0-3.959,0.521-5.159,1.119l-1.72-4.079c1.72-1,5.279-2.439,8.238-2.439
					c1.76,0,3.279,0.201,4.639,1.121c1.721,1.119,3.279,2.799,3.24,5.918l-0.08,9.039L297.298,103.357z M288.499,100.998v-4.119
					c-2.358,0.199-4.039,1.039-4.039,2.439c0,1.158,0.88,2.078,2.239,2.078C287.219,101.396,287.859,101.236,288.499,100.998z"/>
			</g>
		</g>
	</g>
</g>
</svg>
