<?xml version="1.0" encoding="utf-8"?>
<!DOCTYPE svg PUBLIC "-//W3C//DTD SVG 1.1//EN" "http://www.w3.org/Graphics/SVG/1.1/DTD/svg11.dtd">
<svg version="1.1" id="Layer_1" xmlns="http://www.w3.org/2000/svg" xmlns:xlink="http://www.w3.org/1999/xlink" x="0px" y="0px"
	 width="400px" height="150px" viewBox="0 0 400 150" enable-background="new 0 0 400 150" xml:space="preserve">
<meta http-equiv="Content-Type" content="svg/xml" />
<g>
	<g>
		<g>
			<g>
				<polygon fill="#1791FF" points="126.28,45.001 126.28,25 106.282,25 106.282,45.001 106.282,64.998 126.28,64.998 
					146.282,64.998 146.282,45.001 				"/>
				<polygon fill="#1791FF" points="66.281,25 66.281,45.001 46.283,45.001 66.281,64.997 66.281,64.998 86.281,64.998 
					86.281,45.001 86.281,25 				"/>
				<polygon fill="#1791FF" points="126.28,85 106.282,85 106.282,105 106.286,105 126.28,124.994 126.28,105 146.282,105 
					146.282,85 				"/>
				<polygon fill="#607D8B" points="66.281,85 66.281,85.004 46.283,105 66.281,105 66.281,125 86.281,105 86.281,85 				"/>
			</g>
		</g>
	</g>
	<g>
		<g enable-background="new    ">
			<path fill="#1791FF" d="M172.003,42.601h-3.399c0.399-1.68,0.999-3.319,1.199-3.6h9.559c7.318,0,10.318,4.439,10.318,10.159
				c0,4.599-1.76,9.678-5.399,12.718c-2.72,2.279-6.079,3.119-10.479,3.119h-5.919L172.003,42.601z M175.642,61.357
				c5.359-0.16,9.559-5.279,9.559-11.478c0-5.039-2.56-7.319-6.479-7.319c-0.76,0-1.68,0-2.4,0.04l-3.479,18.837L175.642,61.357z"/>
			<path fill="#1791FF" d="M196.082,57.238c-0.04,0.48-0.08,1.04-0.08,1.68c0,2.239,0.761,3.239,2.12,3.239
				c1.64,0,3.399-1.079,5.919-3.639l1.84,2.079c-1,1.16-2.12,2.24-3.119,3c-1.521,1.199-3.399,2.039-5.76,2.039
				c-2.959,0-5.039-1.68-5.039-6.438c0-3.64,1.44-8.639,4.56-11.519c1.76-1.64,3.879-2.72,6.999-2.72c3.119,0,4.879,1.8,4.879,4.08
				c0,1.359-0.76,2.959-2,4.199C204.682,54.919,200.361,56.519,196.082,57.238z M196.683,54.319c2.439-0.521,5.438-1.561,6.599-2.64
				c0.6-0.561,1.079-1.48,1.079-2.32c0-1.159-0.76-1.439-1.76-1.439s-2.56,0.479-3.398,0.92
				C198.122,50.399,197.322,52.159,196.683,54.319z"/>
			<path fill="#1791FF" d="M209.283,60.718c1.479,0.92,3.318,1.52,4.559,1.52c1.96,0,3.479-0.64,3.479-2.279
				c0-0.84-0.479-1.6-1.278-2.279l-2.438-2.04c-1.641-1.359-2.601-2.6-2.601-4.64c0-3.559,3.159-5.719,7.479-5.719
				c2.039,0,4.318,0.72,5.519,1.6c-0.56,1.52-1.72,3.08-1.72,3.08c-1.119-0.721-2.561-1.28-3.92-1.28
				c-1.879,0-3.318,0.64-3.318,2.12c0,0.8,0.641,1.438,1.6,2.279l2.479,2.08c1.56,1.279,2.358,2.839,2.358,4.679
				c0,3.72-3.519,5.759-7.519,5.759c-2.079,0-4.399-0.6-5.919-1.6L209.283,60.718z"/>
			<path fill="#1791FF" d="M228.563,45.681c0.359-0.08,2.6-0.36,4.6-0.36l-3.84,19.677h-4.479L228.563,45.681z M229.602,40.481
				c0-1.28,1.84-2.76,3.319-2.76c0.92,0,1.88,0.88,1.88,1.72c0,1.359-1.92,2.76-3.318,2.76
				C230.521,42.201,229.602,41.321,229.602,40.481z"/>
			<path fill="#1791FF" d="M250.52,67.316c-0.278,5.319-3.759,6.319-7.877,6.319c-2.641,0-5.721-0.68-8.279-1.479l1.039-3.04
				c1.521,0.32,4.681,0.84,7.039,0.84c2.681,0,4.16-0.439,4.359-3.159l0.399-4.879c0.079-1.16,0.64-3.76,0.64-3.76
				c-1.68,3.6-4.679,7.079-8.277,7.079c-2.439,0-3.84-1.68-3.84-5.799c0-6.239,5.199-14.198,11.158-14.198
				c2.319,0,4.879,0.28,7.518,0.64l-3.358,11.998L250.52,67.316z M247.761,55.278l1.839-6.599c-0.72-0.12-1.72-0.24-2.799-0.24
				c-3.318,0-6.919,5.6-6.919,10.559c0,1.64,0.521,2.359,1.479,2.359C243.32,61.357,245.881,58.158,247.761,55.278z"/>
			<path fill="#1791FF" d="M259.762,45.84c0,0,2.159-0.439,4.039-0.56l-0.84,4.079c-0.32,1.68-0.801,3.2-0.801,3.2
				s1.84-2.96,3.721-4.88c1.639-1.64,3.199-2.439,5.238-2.439c2.359,0,4.119,1.04,4.119,3.999c0,0.84-0.199,1.88-0.439,2.72
				l-2.119,8.358l0.399,4.64l-4.438,0.24l-0.201-4.8l1.881-7.719c0.16-0.64,0.279-1.279,0.279-1.839c0-1.04-0.479-1.561-1.358-1.561
				c-0.962,0-1.962,0.721-3.08,1.84c-1.72,1.72-3.959,4.959-3.959,4.959l-1.642,8.919h-4.358L259.762,45.84z"/>
			<path fill="#1791FF" d="M282,57.238c-0.039,0.48-0.08,1.04-0.08,1.68c0,2.239,0.762,3.239,2.12,3.239
				c1.64,0,3.399-1.079,5.919-3.639l1.84,2.079c-1,1.16-2.119,2.24-3.119,3c-1.52,1.199-3.398,2.039-5.76,2.039
				c-2.959,0-5.039-1.68-5.039-6.438c0-3.64,1.439-8.639,4.561-11.519c1.76-1.64,3.879-2.72,6.998-2.72s4.879,1.8,4.879,4.08
				c0,1.359-0.76,2.959-2,4.199C290.6,54.919,286.279,56.519,282,57.238z M282.602,54.319c2.438-0.521,5.438-1.561,6.599-2.64
				c0.6-0.561,1.079-1.48,1.079-2.32c0-1.159-0.76-1.439-1.76-1.439s-2.56,0.479-3.398,0.92
				C284.04,50.399,283.24,52.159,282.602,54.319z"/>
			<path fill="#1791FF" d="M306.84,61.558c-0.041-1.04,0.639-3.239,0.639-3.239c-1.799,3.239-4.918,7.079-8.598,7.079
				c-2.32,0-3.8-1.8-3.8-5.959c0-5.76,4.88-14.198,11.038-14.198c1.12,0,2.4,0.12,3.439,0.36l1.76-7.679c0,0,2.24-0.44,4.158-0.48
				l-4.599,21.037l0.08,6.238l-3.96,0.601L306.84,61.558z M307.359,55.278l1.52-6.639c-0.561-0.08-1.48-0.2-2.439-0.2
				c-4.039,0-7.119,5.959-7.119,10.599c0,1.72,0.48,2.319,1.48,2.319C302.721,61.357,305.92,57.358,307.359,55.278z"/>
			<path fill="#1791FF" d="M327.359,45.681c0.359-0.08,2.6-0.36,4.6-0.36l-3.84,19.677h-4.479L327.359,45.681z M328.4,40.481
				c0-1.28,1.838-2.76,3.317-2.76c0.921,0,1.88,0.88,1.88,1.72c0,1.359-1.918,2.76-3.318,2.76
				C329.32,42.201,328.4,41.321,328.4,40.481z"/>
			<path fill="#1791FF" d="M338.24,45.84c0,0,2.158-0.439,4.039-0.56l-0.84,4.079c-0.32,1.68-0.801,3.2-0.801,3.2
				s1.84-2.96,3.721-4.88c1.639-1.64,3.199-2.439,5.238-2.439c2.358,0,4.118,1.04,4.118,3.999c0,0.84-0.198,1.88-0.438,2.72
				l-2.119,8.358l0.398,4.64l-4.438,0.24l-0.2-4.8l1.88-7.719c0.16-0.64,0.28-1.279,0.28-1.839c0-1.04-0.48-1.561-1.359-1.561
				c-0.961,0-1.961,0.721-3.08,1.84c-1.72,1.72-3.959,4.959-3.959,4.959l-1.641,8.919h-4.359L338.24,45.84z"/>
		</g>
		<g>
			<g enable-background="new    ">
				<path fill="#607D8B" d="M167.363,78.882h18.797c0,1.279-0.72,4.239-1.2,5.519h-9.278v4.479h8.239c0,1.64-0.561,4.438-1.24,5.8
					h-6.999v4.6h9.278v5.719h-15.957V84.4h-1.64V78.882z"/>
				<path fill="#607D8B" d="M188.363,99.639c1.12,0.439,3.399,0.879,5.439,0.879c1.319,0,2.039-0.318,2.039-1.119
					c0-0.479-0.24-0.959-0.96-1.319l-3.079-1.56c-1.68-0.84-3.68-2.319-3.68-5.76c0-4.359,4.039-6.158,8.959-6.158
					c1.8,0,3.719,0.239,5.64,0.68c0,1.32-0.681,4.039-1.4,5.119c-1.359-0.439-3.199-0.721-4.799-0.721
					c-1.119,0-1.68,0.479-1.68,1.12c0,0.64,0.4,1.119,1.28,1.521l3.079,1.438c1.72,0.8,3.84,2.359,3.84,5.759
					c0,4.439-3.92,5.92-8.279,5.92c-2.159,0-4.438-0.359-6.398-0.92V99.639L188.363,99.639z"/>
				<path fill="#607D8B" d="M214.361,85.2h5.039V90h-5.039l-0.041,7.398c0,2.56,0.801,3.039,2.16,3.039
					c0.681,0,1.601-0.24,2.479-0.479c0.438,1.08,0.761,3.479,0.88,4.56c-1.84,0.68-3.52,1.08-5.68,1.08
					c-3.359,0-6.398-1.439-6.358-6.84l0.04-8.758h-3.6c0-1.521,0.439-3.359,1.359-4.8h2.359l0.04-3.279c0,0,3.799-1.8,6.397-2
					L214.361,85.2z"/>
				<path fill="#607D8B" d="M231.721,84.521c5.801,0,10.158,3.479,10.158,10.797c0,7.439-4.52,10.238-10.158,10.238
					c-5.839,0-9.998-2.918-9.998-10.277C221.723,88.08,225.922,84.521,231.721,84.521z M231.721,100.479c2.24,0,3.2-2.319,3.2-5.24
					c0-3.838-0.92-5.598-3.2-5.598c-2.238,0-3.199,1.959-3.199,5.639C228.521,98.238,229.32,100.479,231.721,100.479z"/>
				<path fill="#607D8B" d="M257.04,92.561c0-2.24-1.36-2.48-2.521-2.48c-0.84,0-1.68,0.32-2.439,0.761v14.157h-6.998V85.48
					c1.72-0.681,4.279-1.041,6.879-1.041V87.2c1.641-1.36,3.799-2.56,5.76-2.56c3.918,0,6.318,1.799,6.318,6.758v13.599h-6.999
					V92.561z"/>
				<path fill="#607D8B" d="M272.561,76.682c1.521,0,3.801,1.721,3.801,3.239c0,1.44-2.239,3.24-3.801,3.24
					c-1.52,0-3.799-1.8-3.799-3.24C268.762,78.361,271.082,76.682,272.561,76.682z M269.002,86.04
					c1.719-0.681,4.318-1.04,6.918-1.04v19.997h-6.918V86.04z"/>
				<path fill="#607D8B" d="M298.959,103.357c-1.439,1.238-3.84,2.078-6.16,2.238l-1.359-1.918c-1.08,0.959-2.52,1.879-5.52,1.879
					c-3.719,0-6.238-2.72-6.238-5.72c0-1.88,0.961-3.879,2.601-4.839c1.959-1.16,5.237-1.641,7.997-1.801v-0.799
					c0-1.721-1-2.521-2.799-2.521c-2.239,0-3.959,0.521-5.158,1.119l-1.721-4.079c1.721-1,5.279-2.439,8.238-2.439
					c1.76,0,3.279,0.201,4.639,1.121c1.722,1.119,3.28,2.799,3.24,5.918l-0.08,9.039L298.959,103.357z M290.16,100.998v-4.119
					c-2.359,0.199-4.039,1.039-4.039,2.439c0,1.158,0.879,2.078,2.238,2.078C288.88,101.396,289.52,101.236,290.16,100.998z"/>
			</g>
		</g>
	</g>
</g>
</svg>
