<?xml version="1.0" encoding="utf-8"?>
<!-- Generator: Adobe Illustrator 16.0.0, SVG Export Plug-In . SVG Version: 6.00 Build 0)  -->
<!DOCTYPE svg PUBLIC "-//W3C//DTD SVG 1.1//EN" "http://www.w3.org/Graphics/SVG/1.1/DTD/svg11.dtd">
<svg version="1.1" id="Layer_1" xmlns="http://www.w3.org/2000/svg" xmlns:xlink="http://www.w3.org/1999/xlink" x="0px" y="0px"
	 width="400px" height="150px" viewBox="0 0 400 150" enable-background="new 0 0 400 150" xml:space="preserve">
<meta  http-equiv="Content-Type" content="svg/xml"></meta>
<g>
	<g>
		<g>
			<g>
				<polygon fill="#0000FF" points="126.28,45.001 126.28,25 106.282,25 106.282,45.001 106.282,64.998 126.28,64.998 
					146.282,64.998 146.282,45.001 				"/>
				<polygon fill="#0000FF" points="66.281,25 66.281,45.001 46.283,45.001 66.281,64.997 66.281,64.998 86.281,64.998 
					86.281,45.001 86.281,25 				"/>
				<polygon fill="#0000FF" points="126.28,85 106.282,85 106.282,105 106.286,105 126.28,124.994 126.28,105 146.282,105 
					146.282,85 				"/>
				<polygon points="66.281,85 66.281,85.004 46.283,105 66.281,105 66.281,125 86.281,105 86.281,85 				"/>
			</g>
		</g>
	</g>
</g>
<g>
	<path d="M167.426,46.571v-0.814h3.404l3.848,13.025l0.777,3.108h0.111l0.925-3.108l4.218-13.025h2.775l4.107,13.099l0.777,2.923
		h0.11l0.814-2.923l4.107-13.099h3.108v0.814l-6.401,18.427h-3.404L182.486,50.9l-0.407-1.739h-0.147l-0.407,1.702l-4.33,14.135
		h-3.404L167.426,46.571z"/>
	<path fill="#0000FF" d="M201.171,55.563v0.333c0,1.147,0.147,2.146,0.518,2.997c1.147,2.553,3.294,3.959,6.698,3.959
		c1.961,0,4.403-0.703,6.327-2.072h0.703v2.405c-1.998,1.739-4.959,2.331-6.994,2.331c-6.623,0-10.286-3.404-10.286-10.213
		c0-5.476,3.256-9.954,9.103-9.954c6.513,0,8.918,4.478,9.103,10.213H201.171z M201.355,53.268h11.693
		c-0.186-3.145-2.331-5.402-5.772-5.402C203.724,47.866,201.911,49.864,201.355,53.268z"/>
	<path d="M223.407,36.802v28.196h-3.034V36.802H223.407z"/>
	<path d="M244.128,63.111c-1.073,1.332-3.737,2.405-6.883,2.405c-5.957,0-9.769-4.145-9.769-10.139
		c0-5.958,4.107-10.139,9.769-10.139c3.108,0,5.698,1.48,6.809,2.886v2.849h-0.925c-1.11-1.554-2.924-3.219-5.884-3.219
		c-3.959,0-6.623,2.886-6.623,7.623c0,4.588,2.701,7.623,6.697,7.623c2.442,0,4.218-0.851,5.883-2.997h0.926V63.111z"/>
	<path d="M256.042,45.313c5.847,0,9.806,3.922,9.806,10.028c0,6.216-3.812,10.176-9.806,10.176c-5.884,0-9.731-3.996-9.731-10.065
		C246.311,49.346,250.232,45.313,256.042,45.313z M256.042,62.963c3.737,0,6.66-2.849,6.66-7.512c0-4.958-2.886-7.622-6.66-7.622
		c-3.552,0-6.586,2.664-6.586,7.622C249.456,60.077,252.49,62.963,256.042,62.963z"/>
	<path d="M283.681,52.713c0-2.96-2.146-4.588-5.254-4.588c-1.739,0-4.958,1.48-5.551,3.885l-0.073,12.988h-2.998V45.757h2.887v3.33
		v0.037h0.629c1.221-2.664,3.849-3.663,5.994-3.663c3.849,0,5.847,1.702,6.55,4.033h0.518c1.147-2.701,4.293-4.033,6.771-4.033
		c4.478,0,7.438,2.146,7.438,6.993v12.544h-2.997V52.713c0-2.96-2.146-4.588-5.291-4.588c-2.035,0-5.477,1.739-5.624,4.477v12.396
		h-2.998V52.713z"/>
	<path fill="#0000FF" d="M307.471,55.563v0.333c0,1.147,0.147,2.146,0.518,2.997c1.147,2.553,3.294,3.959,6.698,3.959
		c1.961,0,4.403-0.703,6.327-2.072h0.703v2.405c-1.998,1.739-4.959,2.331-6.994,2.331c-6.623,0-10.286-3.404-10.286-10.213
		c0-5.476,3.256-9.954,9.103-9.954c6.513,0,8.918,4.478,9.103,10.213H307.471z M307.655,53.268h11.693
		c-0.186-3.145-2.331-5.402-5.772-5.402C310.023,47.866,308.211,49.864,307.655,53.268z"/>
	<path d="M340.104,45.757h4.625v2.442h-4.625L340.03,59.67c0,2.516,0.999,2.997,2.442,2.997h1.924v2.331h-2.479
		c-3.293,0-4.81-1.221-4.772-5.587l0.036-11.212h-3.034v-2.442h3.034l0.037-6.624h2.961L340.104,45.757z"/>
	<path d="M357.347,45.313c5.847,0,9.806,3.922,9.806,10.028c0,6.216-3.812,10.176-9.806,10.176c-5.884,0-9.731-3.996-9.731-10.065
		C347.615,49.346,351.537,45.313,357.347,45.313z M357.347,62.963c3.737,0,6.66-2.849,6.66-7.512c0-4.958-2.886-7.622-6.66-7.622
		c-3.552,0-6.586,2.664-6.586,7.622C350.761,60.077,353.795,62.963,357.347,62.963z"/>
	<path fill="#0000FF" d="M170.72,95.563v0.333c0,1.147,0.148,2.146,0.518,2.997c1.147,2.553,3.293,3.959,6.697,3.959
		c1.961,0,4.404-0.703,6.328-2.072h0.703v2.406c-1.998,1.738-4.958,2.33-6.994,2.33c-6.624,0-10.287-3.404-10.287-10.213
		c0-5.476,3.256-9.953,9.103-9.953c6.513,0,8.918,4.478,9.103,10.213H170.72z M170.905,93.268h11.693
		c-0.186-3.145-2.332-5.402-5.772-5.402C173.273,87.865,171.459,89.863,170.905,93.268z"/>
	<path fill="#0000FF" d="M188.997,100.373h0.999c1.036,1.443,3.812,2.813,6.216,2.813c3.108,0,4.7-1.074,4.7-3.035
		c0-4.033-11.841-2.738-11.841-9.287c0-3.256,2.479-5.439,7.659-5.439c2.923,0,5.032,0.925,6.143,1.555v3.07h-0.889
		c-0.703-0.814-2.479-2.368-5.254-2.368c-3.22,0-4.699,1.147-4.699,2.775c0,4.662,11.841,2.664,11.841,9.547
		c0,3.403-2.258,5.513-7.696,5.513c-2.85,0-5.366-0.998-7.179-2.22V100.373z"/>
	<path fill="#0000FF" d="M211.789,85.757h4.625v2.442h-4.625l-0.074,11.471c0,2.516,0.999,2.997,2.442,2.997h1.924v2.331h-2.479
		c-3.293,0-4.81-1.221-4.773-5.588l0.037-11.211h-3.034v-2.442h3.034l0.037-6.624h2.961L211.789,85.757z"/>
	<path d="M229.031,85.313c5.847,0,9.806,3.922,9.806,10.027c0,6.217-3.812,10.176-9.806,10.176c-5.884,0-9.731-3.996-9.731-10.064
		C219.3,89.346,223.222,85.313,229.031,85.313z M229.031,102.963c3.737,0,6.66-2.85,6.66-7.512c0-4.958-2.886-7.622-6.66-7.622
		c-3.552,0-6.586,2.664-6.586,7.622C222.445,100.076,225.479,102.963,229.031,102.963z"/>
	<path d="M256.967,92.973c0-3.183-2.295-4.848-5.439-4.848c-2.221,0-5.588,1.738-5.735,4.477v12.396h-2.998V85.757h2.85v3.367h0.519
		c1.184-2.664,3.848-3.663,6.401-3.663c4.366,0,7.4,2.146,7.4,7.252v12.285h-2.997V92.973z"/>
	<path d="M264.921,81.058v-3.96h3.034v3.96H264.921z M264.921,104.998V85.757h3.034v19.241H264.921z"/>
	<path d="M285.493,102.704h-0.481c-1.628,1.998-3.737,2.812-6.327,2.812c-3.812,0-6.66-2.479-6.66-5.809
		c0-3.959,2.997-5.477,7.548-6.55c1.295-0.259,4.145-0.703,5.477-0.888l0.296-0.481c-0.555-2.22-2.405-3.737-5.032-3.737
		c-2.886,0-4.478,0.889-6.327,2.516h-0.556v-2.701c1.665-1.369,3.849-2.479,6.957-2.479c5.069,0,8.178,2.924,8.178,7.586
		c0,4.292-0.037,7.77-0.037,12.025h-3.034V102.704z M285.493,99.041l0.037-4.07c-1.629,0.259-3.997,0.629-4.996,0.813
		c-3.811,0.703-5.402,1.776-5.402,3.886s1.962,3.182,4.811,3.182c2.035,0,5.551-1.258,5.551-3.885V99.041z"/>
</g>
</svg>
